#N canvas 367 183 635 679 10;
#X declare -path ./lib;
#X obj 19 379 metro 50;
#X msg 89 459 info;
#X obj 47 559 route hand tool;
#X obj 76 529 s gesture;
#X obj 47 609 s hand;
#X obj 19 639 s general;
#X obj 90 589 s tool;
#X obj 19 359 tgl 16 0 empty empty empty 0 -8 0 10 #fcfcfc #000000 #000000 0 1;
#N canvas 855 347 457 344 tool-data 0;
#N canvas 698 164 615 451 tool 0;
#X obj 299 63 r tool;
#X text 104 133 direction;
#X text 104 187 position;
#X text 104 241 velocity;
#X text 104 295 size;
#X obj 167 120 tool 0;
#X obj 229 120 tool 1;
#X obj 291 120 tool 2;
#X obj 353 120 tool 3;
#X obj 415 120 tool 4;
#X connect 0 0 5 0;
#X connect 0 0 6 0;
#X connect 0 0 7 0;
#X connect 0 0 8 0;
#X connect 0 0 9 0;
#X coords 0 -1 1 1 380 245 1 100 100;
#X restore 34 28 pd tool;
#X restore 409 259 pd tool-data;
#N canvas 939 270 671 746 gesture-data 0;
#N canvas 855 104 681 686 gesture 0;
#X obj 30 140 gesture 0;
#X obj 30 46 route count;
#X floatatom 30 110 5 0 0 1 count - - 0;
#X obj 30 15 r gesture;
#X obj 30 370 gesture 1;
#X connect 1 0 2 0;
#X connect 3 0 1 0;
#X coords 0 -1 1 1 610 520 1 20 80;
#X restore 23 29 pd gesture;
#X text 87 609 for more information on gestures \, see:;
#X obj 23 691 pdcontrol;
#X msg 23 639 browse https://developer-archive.leapmotion.com/documentation/v2/cpp/devguide/Leap_Gestures.html;
#N canvas 1082 470 658 415 gesture-configuration 0;
#X floatatom 234 32 5 0 0 0 Gesture.Circle.MinRadius - - 0;
#X floatatom 234 52 5 0 0 0 Gesture.Circle.MinArc - - 0;
#X floatatom 234 82 5 0 0 0 Gesture.Swipe.MinLength - - 0;
#X floatatom 234 102 5 0 0 0 Gesture.Swipe.MinVelocity - - 0;
#X floatatom 234 132 5 0 0 0 Gesture.KeyTap.MinDownVelocity - - 0;
#X floatatom 234 152 5 0 0 0 Gesture.KeyTap.HistorySeconds - - 0;
#X floatatom 234 172 5 0 0 0 Gesture.KeyTap.MinDistance - - 0;
#X floatatom 234 202 5 0 0 0 Gesture.ScreenTap.MinForwardVelocity - - 0;
#X floatatom 234 222 5 0 0 0 Gesture.ScreenTap.HistorySeconds - - 0;
#X floatatom 234 242 5 0 0 0 Gesture.ScreenTap.MinDistance - - 0;
#X obj 314 347 s \$0-leapmotion;
#X msg 314 47 gesture_config circle_min_radius \$1;
#X msg 314 67 gesture_config circle_min_arc \$1;
#X msg 314 97 gesture_config swipe_min_length \$1;
#X msg 314 117 gesture_config swipe_min_velocity \$1;
#X msg 314 167 gesture_config key_tap_history_seconds \$1;
#X msg 314 187 gesture_config key_tap_min_distance \$1;
#X msg 314 147 gesture_config key_tap_min_down_velocity \$1;
#X msg 314 217 gesture_config screen_tap_min_forward_velocity \$1;
#X msg 314 237 gesture_config screen_tap_history_seconds \$1;
#X msg 314 257 gesture_config screen_tap_min_distance \$1;
#X connect 0 0 11 0;
#X connect 1 0 12 0;
#X connect 2 0 13 0;
#X connect 3 0 14 0;
#X connect 4 0 17 0;
#X connect 5 0 15 0;
#X connect 6 0 16 0;
#X connect 7 0 18 0;
#X connect 8 0 19 0;
#X connect 9 0 20 0;
#X connect 11 0 10 0;
#X connect 12 0 10 0;
#X connect 13 0 10 0;
#X connect 14 0 10 0;
#X connect 15 0 10 0;
#X connect 16 0 10 0;
#X connect 17 0 10 0;
#X connect 18 0 10 0;
#X connect 19 0 10 0;
#X connect 20 0 10 0;
#X coords 0 415 1 414 244 220 0;
#X restore 23 559 pd gesture-configuration;
#X text 185 559 << see inside to set gesture parameters;
#X text 425 580 the Leap Motion Controller can track multiple gestures simultaneously. the first value in the gesture outlet's output list is a gesture index \, which enables routing of the data to multiple abstraction instances as demonstrated above., f 37;
#X text 425 670 gesture recognition seems to work best when only one gesture type is enabled at a time., f 37;
#X connect 3 0 2 0;
#X restore 409 279 pd gesture-data;
#N canvas 415 25 405 323 general-data 0;
#X floatatom 169 122 10 0 0 0 frameID - - 0;
#X floatatom 169 142 10 0 0 0 timestamp - - 0;
#X floatatom 169 182 5 0 0 0 hands - - 0;
#X floatatom 169 202 5 0 0 0 tools - - 0;
#X floatatom 169 222 5 0 0 0 gestures - - 0;
#X obj 169 49 r general;
#X floatatom 169 162 10 0 0 0 framerate - - 0;
#X obj 169 75 unpack f f f f f f;
#X connect 5 0 7 0;
#X connect 7 0 0 0;
#X connect 7 1 1 0;
#X connect 7 2 6 0;
#X connect 7 3 2 0;
#X connect 7 4 3 0;
#X connect 7 5 4 0;
#X coords 0 -1 1 1 150 145 1 100 100;
#X restore 409 29 pd general-data;
#N canvas 152 45 1170 768 flag-controls 0;
#X obj 270 219 tgl 15 0 empty to_general general 17 7 0 10 #fcfcfc #000000 #000000 0 1;
#X obj 270 354 tgl 15 0 empty to_hand_palm_position palm_position 17 7 0 10 #fcfcfc #000000 #000000 0 1;
#X obj 400 297 tgl 15 0 empty to_finger_position position 17 7 0 10 #fcfcfc #000000 #000000 0 1;
#X obj 400 439 tgl 15 0 empty to_tool_position position 17 7 0 10 #fcfcfc #000000 #000000 0 1;
#X obj 400 327 tgl 15 0 empty to_finger_size size 17 7 0 10 #fcfcfc #000000 #000000 0 1;
#X obj 400 469 tgl 15 0 empty to_tool_size size 17 7 0 10 #fcfcfc #000000 #000000 0 1;
#X obj 400 454 tgl 15 0 empty to_tool_velocity velocity 17 7 0 10 #fcfcfc #000000 #000000 0 1;
#X obj 400 312 tgl 15 0 empty to_finger_velocity velocity 17 7 0 10 #fcfcfc #000000 #000000 0 1;
#X obj 270 324 tgl 15 0 empty to_hand_direction direction 17 7 0 10 #fcfcfc #000000 #000000 0 1;
#X obj 270 294 tgl 15 0 empty to_hand_sphere_radius sphere_radius 17 7 0 10 #fcfcfc #000000 #000000 0 1;
#X obj 270 309 tgl 15 0 empty to_hand_sphere_center sphere_center 17 7 0 10 #fcfcfc #000000 #000000 0 1;
#X obj 270 429 tgl 15 0 empty to_hand_finger_count finger_count 17 7 0 10 #fcfcfc #000000 #000000 0 1;
#X obj 270 414 tgl 15 0 empty to_hand_tool_count tool_count 17 7 0 10 #fcfcfc #000000 #000000 0 1;
#X obj 270 384 tgl 15 0 empty to_hand_palm_velocity palm_velocity 17 7 0 10 #fcfcfc #000000 #000000 0 1;
#X obj 270 339 tgl 15 0 empty to_hand_palm_normal palm_normal 17 7 0 10 #fcfcfc #000000 #000000 0 1;
#X msg 11 173 general \$1;
#X msg 11 293 hand_direction \$1;
#X msg 11 253 hand_sphere_radius \$1;
#X msg 11 273 hand_sphere_center \$1;
#X msg 11 433 hand_finger_count \$1;
#X msg 11 413 hand_tool_count \$1;
#X msg 11 333 hand_palm_position \$1;
#X msg 11 373 hand_palm_velocity \$1;
#X msg 11 313 hand_palm_normal \$1;
#X msg 653 407 finger_size \$1;
#X msg 11 593 tool_size \$1;
#X msg 653 367 finger_position \$1;
#X msg 653 387 finger_velocity \$1;
#X msg 11 553 tool_position \$1;
#X msg 11 573 tool_velocity \$1;
#X obj 510 434 tgl 15 0 empty to_gesture_circle circle 17 7 0 10 #fcfcfc #000000 #000000 0 1;
#X obj 510 464 tgl 15 0 empty to_gesture_key_tap key_tap 17 7 0 10 #fcfcfc #000000 #000000 0 1;
#X obj 510 479 tgl 15 0 empty to_gesture_screen_tap screen_tap 17 7 0 10 #fcfcfc #000000 #000000 0 1;
#X obj 510 449 tgl 15 0 empty to_gesture_swipe swipe 17 7 0 10 #fcfcfc #000000 #000000 0 1;
#X obj 400 284 tgl 15 0 empty to_finger_direction direction 17 7 0 10 #fcfcfc #000000 #000000 0 1;
#X msg 653 347 finger_direction \$1;
#X text 267 254 hands;
#X text 397 244 fingers;
#X text 508 389 gestures;
#X text 397 399 tools;
#X obj 400 424 tgl 15 0 empty to_tool_direction direction 17 7 0 10 #fcfcfc #000000 #000000 0 1;
#X msg 11 533 tool_direction \$1;
#X obj 510 219 tgl 15 0 empty empty all_on/off 17 7 0 10 #fcfcfc #000000 #000000 0 1;
#X obj 896 629 loadbang;
#X obj 896 729 declare -path ./lib;
#X text 893 694 this sets the GUI controls to match the default settings of [leapmotion], f 37;
#X obj 270 279 tgl 15 0 empty to_hand_type type 17 7 0 10 #fcfcfc #000000 #000000 0 1;
#X msg 11 233 hand_type \$1;
#X msg 896 649 \; to_general set 1 \; to_hand_palm_position set 1 \;;
#X obj 510 414 tgl 15 0 empty to_gesture_count count 17 7 0 10 #fcfcfc #000000 #000000 0 1;
#X msg 653 557 gesture_count \$1;
#X text 651 503 at least one gesture type must be enabled in order to produce gesture count data, f 21;
#X obj 510 279 tgl 15 0 empty to_arm_center center 19 7 0 10 #fcfcfc #000000 #000000 0 1;
#X obj 510 294 tgl 15 0 empty to_arm_direction direction 19 7 0 10 #fcfcfc #000000 #000000 0 1;
#X obj 510 309 tgl 15 0 empty to_arm_elbow_position elbow_position 19 7 0 10 #fcfcfc #000000 #000000 0 1;
#X obj 510 324 tgl 15 0 empty to_arm_wrist_position wrist_position 19 7 0 10 #fcfcfc #000000 #000000 0 1;
#X obj 510 339 tgl 15 0 empty to_arm_width width 19 7 0 10 #fcfcfc #000000 #000000 0 1;
#X msg 653 177 arm_center \$1;
#X msg 653 197 arm_direction \$1;
#X msg 653 217 arm_elbow_position \$1;
#X msg 653 237 arm_wrist_position \$1;
#X msg 653 257 arm_width \$1;
#X text 507 254 arms;
#X msg 653 327 finger_type \$1;
#X msg 653 427 finger_is_extended \$1;
#X obj 400 342 tgl 15 0 empty to_finger_is_extended is_extended 17 7 0 10 #fcfcfc #000000 #000000 0 1;
#X obj 400 269 tgl 15 0 empty to_finger_type type 17 7 0 10 #fcfcfc #000000 #000000 0 1;
#X obj 270 369 tgl 15 0 empty to_hand_stabilized_palm_position stabilized_palm_position 17 7 0 10 #fcfcfc #000000 #000000 0 1;
#X obj 270 459 tgl 15 0 empty to_hand_pinch_strength pinch_strength 17 7 0 10 #fcfcfc #000000 #000000 0 1;
#X obj 270 444 tgl 15 0 empty to_hand_grab_strength grab_strength 17 7 0 10 #fcfcfc #000000 #000000 0 1;
#X obj 270 399 tgl 15 0 empty to_hand_palm_width palm_width 17 7 0 10 #fcfcfc #000000 #000000 0 1;
#X msg 11 393 hand_palm_width \$1;
#X obj 270 474 tgl 15 0 empty to_hand_time_visible time_visible 17 7 0 10 #fcfcfc #000000 #000000 0 1;
#X msg 11 453 hand_grab_strength \$1;
#X msg 11 473 hand_pinch_strength \$1;
#X msg 11 493 hand_time_visible \$1;
#X msg 896 139 \; to_general \$1 \; \; to_hand_type \$1 \; to_hand_sphere_radius \$1 \; to_hand_sphere_center \$1 \; to_hand_direction \$1 \; to_hand_palm_normal \$1 \; to_hand_palm_position \$1 \; to_hand_stabilized_palm_position \$1 \; to_hand_palm_velocity \$1 \; to_hand_palm_width \$1 \; to_hand_finger_count \$1 \; to_hand_tool_count \$1 \; to_hand_grab_strength \$1 \; to_hand_pinch_strength \$1 \; to_hand_time_visible \$1 \; \; to_finger_type \$1 \; to_finger_direction \$1 \; to_finger_position \$1 \; to_finger_velocity \$1 \; to_finger_size \$1 \; to_finger_is_extended \$1 \; \; to_arm_center \$1 \; to_arm_direction \$1 \; to_arm_elbow_position \$1 \; to_arm_wrist_position \$1 \; to_arm_width \$1 \; \; to_tool_direction \$1 \; to_tool_position \$1 \; to_tool_velocity \$1 \; to_tool_size \$1 \; \; to_gesture_count \$1 \; to_gesture_circle \$1 \; to_gesture_swipe \$1 \; to_gesture_key_tap \$1 \; to_gesture_screen_tap \$1 \;;
#X msg 11 353 hand_stabilized_palm_position \$1;
#X obj 11 623 s \$0-leapmotion;
#X msg 653 587 gesture_enable circle \$1;
#X msg 653 647 gesture_enable screen_tap \$1;
#X msg 653 627 gesture_enable key_tap \$1;
#X msg 653 607 gesture_enable swipe \$1;
#X obj 653 668 s \$0-leapmotion;
#X obj 653 278 s \$0-leapmotion;
#X obj 653 448 s \$0-leapmotion;
#X obj 350 219 tgl 16 0 empty empty normalize 17 7 0 10 #fcfcfc #000000 #000000 0 1;
#X msg 11 193 ibox_normalize \$1;
#X msg 308 61 browse https://developer-archive.leapmotion.com/documentation/v2/cpp/api/Leap.InteractionBox.html;
#X obj 308 104 pdcontrol;
#X text 305 130 "ibox_normalize" activates coordinate normalization within the bounds of the Leap::InteractionBox. see documentation link above for more information. note that only position vectors (not direction or velocity vectors) are normalized., f 51;
#X connect 0 0 15 0;
#X connect 1 0 21 0;
#X connect 2 0 26 0;
#X connect 3 0 28 0;
#X connect 4 0 24 0;
#X connect 5 0 25 0;
#X connect 6 0 29 0;
#X connect 7 0 27 0;
#X connect 8 0 16 0;
#X connect 9 0 17 0;
#X connect 10 0 18 0;
#X connect 11 0 19 0;
#X connect 12 0 20 0;
#X connect 13 0 22 0;
#X connect 14 0 23 0;
#X connect 15 0 78 0;
#X connect 16 0 78 0;
#X connect 17 0 78 0;
#X connect 18 0 78 0;
#X connect 19 0 78 0;
#X connect 20 0 78 0;
#X connect 21 0 78 0;
#X connect 22 0 78 0;
#X connect 23 0 78 0;
#X connect 24 0 85 0;
#X connect 25 0 78 0;
#X connect 26 0 85 0;
#X connect 27 0 85 0;
#X connect 28 0 78 0;
#X connect 29 0 78 0;
#X connect 30 0 79 0;
#X connect 31 0 81 0;
#X connect 32 0 80 0;
#X connect 33 0 82 0;
#X connect 34 0 35 0;
#X connect 35 0 85 0;
#X connect 40 0 41 0;
#X connect 41 0 78 0;
#X connect 42 0 76 0;
#X connect 43 0 48 0;
#X connect 46 0 47 0;
#X connect 47 0 78 0;
#X connect 49 0 50 0;
#X connect 50 0 83 0;
#X connect 52 0 57 0;
#X connect 53 0 58 0;
#X connect 54 0 59 0;
#X connect 55 0 60 0;
#X connect 56 0 61 0;
#X connect 57 0 84 0;
#X connect 58 0 84 0;
#X connect 59 0 84 0;
#X connect 60 0 84 0;
#X connect 61 0 84 0;
#X connect 63 0 85 0;
#X connect 64 0 85 0;
#X connect 65 0 64 0;
#X connect 66 0 63 0;
#X connect 67 0 77 0;
#X connect 68 0 74 0;
#X connect 69 0 73 0;
#X connect 70 0 71 0;
#X connect 71 0 78 0;
#X connect 72 0 75 0;
#X connect 73 0 78 0;
#X connect 74 0 78 0;
#X connect 75 0 78 0;
#X connect 77 0 78 0;
#X connect 79 0 83 0;
#X connect 80 0 83 0;
#X connect 81 0 83 0;
#X connect 82 0 83 0;
#X connect 86 0 87 0;
#X connect 87 0 78 0;
#X connect 88 0 89 0;
#X coords 0 -1 1 1 370 310 1 260 200;
#X restore 19 29 pd flag-controls;
#X text 516 261 open sub-patches to see data, f 16;
#X text 42 359 start polling LEAP device;
#X obj 11 491 cnv 16 106 32 empty empty empty 20 12 0 10 #e0e0e0 #404040 0;
#X obj 19 499 leapmotion;
#N canvas 702 63 1101 717 hand/finger-data 0;
#X obj 558 39 hand 1;
#X obj 18 39 hand 0;
#X obj 368 671 pdcontrol;
#X text 432 589 for more information on hand data \, see:;
#X msg 368 619 browse https://developer-archive.leapmotion.com/documentation/v2/cpp/api/Leap.Hand.html;
#X connect 4 0 2 0;
#X restore 409 239 pd hand/finger-data;
#X obj 49 419 r \$0-leapmotion;
#X text 215 469 specific tracking data are output or suppressed based on the state of their corresponding flags. see inside [pd flag-controls] for details.;
#X text 215 519 output from the object is easily parsed using [route] objects \, as demonstrated in the sub-patches above.;
#N canvas 153 396 502 376 leapmotion-info 0;
#X obj 36 299 pdcontrol;
#X msg 36 87 browse https://github.com/wbrent/leapmotion;
#X text 53 123 download Leap SDK version 2.3.1 here:;
#X msg 56 147 browse https://developer.leapmotion.com/releases;
#X msg 76 207 browse https://developer-archive.leapmotion.com/documentation/v2/cpp/index.html?proglang=cpp;
#X text 73 183 browse the 2.3.1 SDK documentation here:;
#X text 33 53 access the GitHub repo for this version of [leapmotion] here:, f 33;
#X connect 1 0 0 0;
#X connect 3 0 0 0;
#X connect 4 0 0 0;
#X restore 504 613 pd leapmotion-info;
#X text 215 409 [leapmotion] accesses tracking data from the original Leap Motion Controller using Leap SDK version 2.3.1. this version of [leapmotion] is a fork of Chikashi Miyama's original Pd_leapmotion version 0.1 code.;
#X text 456 645 [leapmotion] version 0.2.2;
#X connect 0 0 15 0;
#X connect 1 0 15 0;
#X connect 2 0 4 0;
#X connect 2 1 6 0;
#X connect 7 0 0 0;
#X connect 15 0 5 0;
#X connect 15 1 2 0;
#X connect 15 2 3 0;
#X connect 17 0 15 0;
