#N canvas 92 117 450 300 10;
#X floatatom 146 235 8 0 0 0 dur: - - 0;
#X floatatom 146 175 5 0 0 0 id: - - 0;
#X obj 166 119 symbol;
#X symbolatom 146 195 10 0 0 0 type: - - 0;
#X obj 232 119 symbol;
#X symbolatom 146 215 10 0 0 0 state: - - 0;
#X obj 146 57 route \$1;
#X obj 146 29 r gesture;
#X obj 146 83 route id type state duration;
#X connect 2 0 3 0;
#X connect 4 0 5 0;
#X connect 6 0 8 0;
#X connect 7 0 6 0;
#X connect 8 0 1 0;
#X connect 8 1 2 0;
#X connect 8 2 4 0;
#X connect 8 3 0 0;
#X coords 0 -1 1 1 120 110 1 100 150;
