#N canvas 155 85 1105 588 10;
#X floatatom 146 416 8 0 0 0 dur: - - 0;
#X floatatom 146 356 5 0 0 0 id: - - 0;
#X obj 302 199 symbol;
#X symbolatom 146 376 10 0 0 0 type: - - 0;
#X obj 242 113 symbol;
#X symbolatom 146 396 10 0 0 0 state: - - 0;
#X obj 146 57 route \$1;
#X obj 146 29 r gesture;
#X obj 146 83 route id type state duration data;
#X obj 223 332 cnv 16 160 107 empty empty circle-data 20 12 0 12 #e0e0e0 #404040 0;
#X floatatom 236 382 5 0 0 0 x - - 0;
#X floatatom 236 399 5 0 0 0 y - - 0;
#X floatatom 236 416 5 0 0 0 z - - 0;
#X obj 402 235 unpack f f f;
#X floatatom 286 399 5 0 0 1 radius - - 0;
#X floatatom 286 416 5 0 0 1 progress - - 0;
#X obj 402 203 route center radius progress;
#X text 233 357 center;
#X obj 402 45 route circle swipe key_tap screen_tap;
#X obj 456 133 route start_position direction speed position;
#X obj 456 164 unpack f f f;
#X obj 546 164 unpack f f f;
#X obj 636 164 unpack f f f;
#X obj 385 332 cnv 16 300 107 empty empty swipe-data 20 12 0 12 #bbbbbb #404040 0;
#X floatatom 398 382 5 0 0 0 x - - 0;
#X floatatom 398 399 5 0 0 0 y - - 0;
#X floatatom 398 416 5 0 0 0 z - - 0;
#X floatatom 608 416 5 0 0 1 speed - - 0;
#X text 395 357 start_pos;
#X floatatom 468 382 5 0 0 0 x - - 0;
#X floatatom 468 399 5 0 0 0 y - - 0;
#X floatatom 468 416 5 0 0 0 z - - 0;
#X floatatom 538 382 5 0 0 0 x - - 0;
#X floatatom 538 399 5 0 0 0 y - - 0;
#X floatatom 538 416 5 0 0 0 z - - 0;
#X text 465 357 direction;
#X text 535 357 position;
#X obj 223 441 cnv 16 230 107 empty empty key-tap-data 20 12 0 12 #bbbbbb #404040 0;
#X floatatom 376 525 5 0 0 2 progress - - 0;
#X floatatom 236 491 5 0 0 0 x - - 0;
#X floatatom 236 508 5 0 0 0 y - - 0;
#X floatatom 236 525 5 0 0 0 z - - 0;
#X floatatom 306 491 5 0 0 0 x - - 0;
#X floatatom 306 508 5 0 0 0 y - - 0;
#X floatatom 306 525 5 0 0 0 z - - 0;
#X text 233 466 direction;
#X text 303 466 position;
#X obj 455 441 cnv 16 230 107 empty empty screen-tap-data 20 12 0 12 #dfdfdf #404040 0;
#X floatatom 608 525 5 0 0 2 progress - - 0;
#X floatatom 468 491 5 0 0 0 x - - 0;
#X floatatom 468 508 5 0 0 0 y - - 0;
#X floatatom 468 525 5 0 0 0 z - - 0;
#X floatatom 538 491 5 0 0 0 x - - 0;
#X floatatom 538 508 5 0 0 0 y - - 0;
#X floatatom 538 525 5 0 0 0 z - - 0;
#X text 465 466 direction;
#X text 535 466 position;
#X obj 692 265 unpack f f f;
#X obj 862 335 unpack f f f;
#X obj 792 265 unpack f f f;
#X obj 692 233 route direction position progress;
#X obj 862 303 route direction position progress;
#X obj 962 335 unpack f f f;
#X obj 302 169 list split 1;
#X connect 2 0 3 0;
#X connect 4 0 5 0;
#X connect 6 0 8 0;
#X connect 7 0 6 0;
#X connect 8 0 1 0;
#X connect 8 2 4 0;
#X connect 8 3 0 0;
#X connect 8 4 18 0;
#X connect 8 4 63 0;
#X connect 13 0 10 0;
#X connect 13 1 11 0;
#X connect 13 2 12 0;
#X connect 16 0 13 0;
#X connect 16 1 14 0;
#X connect 16 2 15 0;
#X connect 18 0 16 0;
#X connect 18 1 19 0;
#X connect 18 2 60 0;
#X connect 18 3 61 0;
#X connect 19 0 20 0;
#X connect 19 1 21 0;
#X connect 19 2 27 0;
#X connect 19 3 22 0;
#X connect 20 0 24 0;
#X connect 20 1 25 0;
#X connect 20 2 26 0;
#X connect 21 0 29 0;
#X connect 21 1 30 0;
#X connect 21 2 31 0;
#X connect 22 0 32 0;
#X connect 22 1 33 0;
#X connect 22 2 34 0;
#X connect 57 0 39 0;
#X connect 57 1 40 0;
#X connect 57 2 41 0;
#X connect 58 0 49 0;
#X connect 58 1 50 0;
#X connect 58 2 51 0;
#X connect 59 0 42 0;
#X connect 59 1 43 0;
#X connect 59 2 44 0;
#X connect 60 0 57 0;
#X connect 60 1 59 0;
#X connect 60 2 38 0;
#X connect 61 0 58 0;
#X connect 61 1 62 0;
#X connect 61 2 48 0;
#X connect 62 0 52 0;
#X connect 62 1 53 0;
#X connect 62 2 54 0;
#X connect 63 0 2 0;
#X coords 0 -1 1 1 587 220 1 100 330;
