#N canvas 114 40 1225 674 10;
#X obj 648 51 route \$1;
#X floatatom 195 517 5 0 0 0 fingers - - 0;
#X floatatom 195 534 5 0 0 0 tools - - 0;
#X floatatom 195 437 5 0 0 0 sphere_radius - - 0;
#X obj 648 24 r hand;
#X text 238 222 direction;
#X text 244 274 position;
#X text 244 327 velocity;
#X text 268 380 size;
#X obj 195 31 unpack f f f;
#X obj 495 31 unpack f f f;
#X obj 112 186 cnv 16 115 50 empty empty empty 20 12 0 10 #e0e0e0 #404040 0;
#X floatatom 195 129 5 0 0 0 x - - 0;
#X floatatom 195 146 5 0 0 0 y - - 0;
#X floatatom 195 163 5 0 0 0 z - - 0;
#X text 124 128 direction;
#X obj 95 31 unpack f f f;
#X floatatom 195 357 5 0 0 0 x - - 0;
#X floatatom 195 374 5 0 0 0 y - - 0;
#X floatatom 195 391 5 0 0 0 z - - 0;
#X text 124 357 palm velocity, f 8;
#X obj 395 31 unpack f f f;
#X floatatom 195 243 5 0 0 0 x - - 0;
#X floatatom 195 260 5 0 0 0 y - - 0;
#X floatatom 195 277 5 0 0 0 z - - 0;
#X floatatom 195 186 5 0 0 0 x - - 0;
#X floatatom 195 203 5 0 0 0 y - - 0;
#X floatatom 195 220 5 0 0 0 z - - 0;
#X text 124 185 palm normal, f 6;
#X text 124 243 palm position, f 8;
#X symbolatom 299 129 10 0 0 1 type - - 0;
#X obj 299 79 symbol;
#X text 433 151 fingers;
#X obj 299 456 arm;
#X obj 112 460 cnv 16 115 50 empty empty empty 20 12 0 10 #e0e0e0 #404040 0;
#X floatatom 195 460 5 0 0 0 x - - 0;
#X floatatom 195 477 5 0 0 0 y - - 0;
#X floatatom 195 494 5 0 0 0 z - - 0;
#X text 124 460 sphere center, f 9;
#X obj 831 201 unpack f f f;
#X floatatom 469 129 10 0 0 1 time_visible - - 0;
#X floatatom 195 557 5 0 0 0 grab_strength - - 0;
#X floatatom 195 574 5 0 0 0 pinch_strength - - 0;
#X obj 112 300 cnv 16 115 50 empty empty empty 20 12 0 10 #e0e0e0 #404040 0;
#X floatatom 195 300 5 0 0 0 x - - 0;
#X floatatom 195 317 5 0 0 0 y - - 0;
#X floatatom 195 334 5 0 0 0 z - - 0;
#X text 114 300 stabilized palm position, f 11;
#X obj 112 414 cnv 16 115 16 empty empty empty 20 12 0 10 #e0e0e0 #404040 0;
#X floatatom 195 414 5 0 0 0 palm_width - - 0;
#X obj 819 111 route type direction finger_count tool_count grab_strength pinch_strength time_visible;
#X obj 690 231 route normal position stabilized_position velocity width;
#X obj 776 171 route radius center;
#X obj 295 31 unpack f f f;
#X obj 299 176 finger 0;
#X obj 362 176 finger 1;
#X obj 425 176 finger 2;
#X obj 488 176 finger 3;
#X obj 551 176 finger 4;
#X obj 648 81 route arm palm finger sphere;
#X connect 0 0 59 0;
#X connect 4 0 0 0;
#X connect 9 0 22 0;
#X connect 9 1 23 0;
#X connect 9 2 24 0;
#X connect 10 0 25 0;
#X connect 10 1 26 0;
#X connect 10 2 27 0;
#X connect 16 0 12 0;
#X connect 16 1 13 0;
#X connect 16 2 14 0;
#X connect 21 0 17 0;
#X connect 21 1 18 0;
#X connect 21 2 19 0;
#X connect 31 0 30 0;
#X connect 39 0 35 0;
#X connect 39 1 36 0;
#X connect 39 2 37 0;
#X connect 50 0 31 0;
#X connect 50 1 16 0;
#X connect 50 2 1 0;
#X connect 50 3 2 0;
#X connect 50 4 41 0;
#X connect 50 5 42 0;
#X connect 50 6 40 0;
#X connect 51 0 10 0;
#X connect 51 1 9 0;
#X connect 51 2 53 0;
#X connect 51 3 21 0;
#X connect 51 4 49 0;
#X connect 52 0 3 0;
#X connect 52 1 39 0;
#X connect 53 0 44 0;
#X connect 53 1 45 0;
#X connect 53 2 46 0;
#X connect 59 0 33 0;
#X connect 59 1 51 0;
#X connect 59 2 54 0;
#X connect 59 2 55 0;
#X connect 59 2 56 0;
#X connect 59 2 57 0;
#X connect 59 2 58 0;
#X connect 59 3 52 0;
#X connect 59 4 50 0;
#X coords 0 -1 1 1 524 530 1 100 100;
