#N canvas 114 40 1048 674 10;
#X obj 648 51 route \$1;
#X floatatom 195 459 5 0 0 0 fingers - - 0;
#X floatatom 195 476 5 0 0 0 tools - - 0;
#X floatatom 195 365 5 0 0 0 sphere_radius - - 0;
#X obj 648 24 r hand;
#X text 238 192 direction;
#X text 244 244 position;
#X text 244 297 velocity;
#X text 268 350 size;
#X obj 295 31 unpack f f f;
#X obj 495 31 unpack f f f;
#X obj 121 186 cnv 16 106 50 empty empty empty 20 12 0 10 #e0e0e0 #404040 0;
#X floatatom 195 129 5 0 0 0 x - - 0;
#X floatatom 195 146 5 0 0 0 y - - 0;
#X floatatom 195 163 5 0 0 0 z - - 0;
#X text 124 128 direction;
#X obj 195 31 unpack f f f;
#X obj 121 300 cnv 16 106 50 empty empty empty 20 12 0 10 #e0e0e0 #404040 0;
#X floatatom 195 300 5 0 0 0 x - - 0;
#X floatatom 195 317 5 0 0 0 y - - 0;
#X floatatom 195 334 5 0 0 0 z - - 0;
#X text 124 300 palm velocity, f 8;
#X obj 395 31 unpack f f f;
#X floatatom 195 243 5 0 0 0 x - - 0;
#X floatatom 195 260 5 0 0 0 y - - 0;
#X floatatom 195 277 5 0 0 0 z - - 0;
#X floatatom 195 186 5 0 0 0 x - - 0;
#X floatatom 195 203 5 0 0 0 y - - 0;
#X floatatom 195 220 5 0 0 0 z - - 0;
#X text 124 185 palm normal, f 6;
#X text 124 243 palm position, f 8;
#X symbolatom 299 129 10 0 0 1 type - - 0;
#X obj 648 271 symbol;
#X obj 299 176 point 0;
#X obj 362 176 point 1;
#X obj 425 176 point 2;
#X obj 488 176 point 3;
#X obj 551 176 point 4;
#X text 433 151 fingers;
#X obj 299 456 arm;
#X obj 648 81 route type direction palm_position palm_velocity palm_normal sphere_radius sphere_center finger_count tool_count fingers arm;
#X obj 121 395 cnv 16 106 50 empty empty empty 20 12 0 10 #e0e0e0 #404040 0;
#X floatatom 195 395 5 0 0 0 x - - 0;
#X floatatom 195 412 5 0 0 0 y - - 0;
#X floatatom 195 429 5 0 0 0 z - - 0;
#X text 124 395 sphere center, f 9;
#X obj 842 211 unpack f f f;
#X connect 0 0 40 0;
#X connect 4 0 0 0;
#X connect 9 0 23 0;
#X connect 9 1 24 0;
#X connect 9 2 25 0;
#X connect 10 0 26 0;
#X connect 10 1 27 0;
#X connect 10 2 28 0;
#X connect 16 0 12 0;
#X connect 16 1 13 0;
#X connect 16 2 14 0;
#X connect 22 0 18 0;
#X connect 22 1 19 0;
#X connect 22 2 20 0;
#X connect 32 0 31 0;
#X connect 40 0 32 0;
#X connect 40 1 16 0;
#X connect 40 2 9 0;
#X connect 40 3 22 0;
#X connect 40 4 10 0;
#X connect 40 5 3 0;
#X connect 40 6 46 0;
#X connect 40 7 1 0;
#X connect 40 8 2 0;
#X connect 40 9 33 0;
#X connect 40 9 34 0;
#X connect 40 9 35 0;
#X connect 40 9 36 0;
#X connect 40 9 37 0;
#X connect 40 10 39 0;
#X connect 46 0 42 0;
#X connect 46 1 43 0;
#X connect 46 2 44 0;
#X coords 0 -1 1 1 524 530 1 100 100;
